<svg xmlns="http://www.w3.org/2000/svg" width="600" height="106"><path d="M401.3 0h-19.4v36.5C379.1 9.2 369 0 354.2 0c-11.1 0-19.4 5.5-24.5 19.9C326 5.6 315.4 0 297.8 0h-19.4v36.5h-.5C275.1 9.2 265 0 250.2 0c-14.3 0-24.5 9.2-27.7 36.5h-.5V0h-25l-9.2 54.5h-.5L179.4 0h-25.9v20.8C151.2 8.3 143.8 0 129.9 0c-15.3 0-23.6 10.6-25 24C100.7 6 91.5 0 79.5 0 66.1 0 56.4 7.9 52.7 30.5 51.8 14.3 47.2 0 27.7 0 12.4 0 0 13.9 0 53.2c0 33.7 6.9 53.2 27.7 53.2 18.5 0 23.6-14.8 25-29.6 3.7 22.2 13.4 29.6 26.8 29.6 12.9 0 22.2-7.4 26.3-28.2.9 13.4 6 28.2 25 28.2 10.6 0 18.5-4.6 22.7-12.5v12h14.3V28.2h.5l12.9 77.7h10.6l12.9-77.7h.5v77.7h17.1V69.4h.5c2.8 27.3 12.9 36.5 27.7 36.5 14.3 0 24.5-9.2 27.7-36.5h.5v36.5h19.4V63.4h7.9c9.7 0 16.2-3.7 20.3-9.7 0 39.8 11.1 52.2 28.2 52.2 14.3 0 24.5-9.2 27.7-36.5v36.5h43.9V89.7h-24.5V0h-.3zM37.1 65.7c-.5 14.8-1.8 24-8.3 24-6 0-7.9-3.7-7.9-37.4 0-34.2 4.2-36.5 8.3-36.5 4.6 0 6.9 6.5 6.9 23.1l16.2-.5c-.5 4.6-.5 9.2-.5 14.8 0 5.1 0 9.7.5 13.9l-15.2-1.4zM87 63.8c0 22.2-2.8 26.3-6.9 26.3-4.6 0-6.9-4.6-6.9-26.3V42.1c0-22.2 2.8-26.3 6.9-26.3 4.6 0 6.9 4.6 6.9 26.3 0 0 0 21.7 0 21.7zm44.8 26.4c-8.3 0-8.3-10.2-8.3-15.7h-16.6c.9-6 1.4-13.4 1.4-21.7 0-4.2 0-8.3-.5-12 8.3 19 32.4 24.5 32.4 39.8 0 3.5-1.9 9.6-8.4 9.6zM122.6 25c0-5.5 2.8-9.2 7.4-9.2 7.9 0 7.9 9.7 7.9 15.3h16.2v31c-9.3-16.8-31.5-23.3-31.5-37.1zm135 38.8c0 22.2-2.8 26.8-6.9 26.8-4.6 0-6.9-4.6-6.9-26.8V42.1c0-22.2 2.8-26.8 6.9-26.8 4.6 0 6.9 4.6 6.9 26.8 0 0 0 21.7 0 21.7zm42-15.7h-1.8V16.2h1.4c6.5 0 12.5.5 12.5 15.7 0 13-4.2 16.2-12.1 16.2zm61.5 15.7c0 22.2-2.8 26.8-6.9 26.8-4.6 0-6.9-4.6-6.9-26.8V42.1c0-22.2 2.8-26.8 6.9-26.8 4.6 0 6.9 4.6 6.9 26.8v21.7zm68-63.8h19.4v105.9h-19.4V0zM504 0h-52.7v16.2h16.6v89.7h19.4V16.2h16.6V0m80 0v55.9h-.5L565.8 0h-19v92.5L535.2.1H507L492.2 106h16.2l2.8-23.6h15.9l2.8 23.6h33.7V41.7h.5l20.8 64.3h15.2V0h-16.2zm-70.2 67l6-50.8h.5l5.5 50.8h-12z" fill="#e670b1"/></svg>